<?xml version="1.0" standalone="no"?>
<!DOCTYPE svg PUBLIC "-//W3C//DTD SVG 20010904//EN"
 "http://www.w3.org/TR/2001/REC-SVG-20010904/DTD/svg10.dtd">
<svg version="1.0" xmlns="http://www.w3.org/2000/svg"
 width="940.000000pt" height="211.000000pt" viewBox="0 0 940.000000 211.000000"
 preserveAspectRatio="xMidYMid meet">

<g transform="translate(0.000000,211.000000) scale(0.100000,-0.100000)"
fill="#000000" stroke="none">
<path d="M0 1060 l0 -1050 4700 0 4700 0 0 1050 0 1050 -4700 0 -4700 0 0
-1050z m1035 268 c60 -139 112 -261 117 -270 8 -16 3 -18 -37 -18 -43 0 -47 2
-61 35 l-14 35 -148 0 -148 0 -13 -35 c-9 -27 -18 -35 -37 -35 -13 0 -24 1
-24 3 0 1 45 107 100 236 95 224 99 235 85 262 -21 39 -20 39 29 39 l44 0 107
-252z m470 233 c63 -29 88 -62 93 -126 3 -33 -1 -68 -8 -86 -15 -35 -83 -89
-112 -89 -10 0 -18 -3 -18 -7 0 -3 24 -38 53 -77 29 -39 63 -86 76 -103 l22
-33 -50 0 -51 0 -77 105 c-66 90 -81 105 -105 105 l-28 0 0 -105 0 -105 -40 0
-40 0 0 270 0 270 123 0 c97 0 130 -4 162 -19z m469 5 c93 -39 100 -155 11
-187 l-35 -13 50 -24 c63 -30 90 -72 90 -142 0 -65 -26 -111 -78 -136 -29 -15
-65 -20 -169 -22 l-133 -4 0 271 0 271 115 0 c76 0 127 -5 149 -14z m306 -256
l0 -270 -40 0 -40 0 0 270 0 270 40 0 40 0 0 -270z m-1372 -488 c42 -30 64
-74 64 -127 0 -53 -22 -97 -64 -127 -27 -19 -49 -24 -115 -27 l-83 -3 0 157 0
157 83 -3 c66 -3 88 -8 115 -27z m332 18 c0 -6 -30 -10 -70 -10 l-70 0 0 -45
0 -45 65 0 c37 0 65 -4 65 -10 0 -6 -28 -10 -65 -10 l-65 0 0 -80 0 -80 70 0
c40 0 70 -4 70 -10 0 -6 -38 -10 -95 -10 l-95 0 0 155 0 155 95 0 c57 0 95 -4
95 -10z m198 4 c12 -4 22 -12 22 -19 0 -10 -9 -11 -40 -3 -30 8 -44 7 -55 -2
-25 -21 -18 -39 39 -98 29 -31 59 -67 65 -79 15 -29 5 -69 -22 -88 -28 -20
-107 -19 -135 1 -32 22 -17 37 18 19 16 -8 36 -15 45 -15 16 0 55 34 55 49 0
5 -29 44 -65 86 -70 82 -80 113 -43 139 23 16 75 21 116 10z m162 -149 l0
-155 -25 0 -25 0 0 155 0 155 25 0 25 0 0 -155z m304 141 c32 -13 53 -33 44
-42 -2 -2 -22 6 -44 17 -87 45 -174 -4 -182 -103 -7 -91 49 -146 151 -147 l37
-1 0 90 c0 89 0 90 25 90 l25 0 0 -100 0 -100 -85 0 c-140 0 -205 49 -205 154
0 117 120 190 234 142z m251 -106 l80 -115 3 118 c2 95 5 117 17 117 13 0 15
-25 15 -156 0 -155 0 -155 -22 -152 -16 2 -47 38 -103 118 l-80 115 -3 -118
c-4 -166 -22 -150 -22 20 0 115 -3 139 -17 156 -17 18 -16 18 17 15 32 -3 41
-13 115 -118z"/>
<path d="M824 1302 l-60 -147 124 -3 c69 -1 127 -1 129 2 6 5 -118 296 -126
296 -3 0 -33 -67 -67 -148z"/>
<path d="M1300 1415 l0 -128 65 6 c107 10 144 41 145 120 0 27 -5 57 -10 68
-16 29 -64 49 -135 56 l-65 6 0 -128z"/>
<path d="M1790 1459 l0 -82 61 6 c69 6 109 34 109 74 0 55 -42 83 -126 83
l-44 0 0 -81z"/>
<path d="M1790 1211 l0 -131 50 0 c108 0 169 55 157 142 -9 67 -56 103 -151
114 l-56 7 0 -132z"/>
<path d="M760 695 l0 -135 25 0 c44 0 105 31 120 61 8 15 15 49 15 74 0 25 -7
59 -15 74 -15 30 -76 61 -120 61 l-25 0 0 -135z"/>
</g>
</svg>
