<?xml version="1.0" standalone="no"?>
<!DOCTYPE svg PUBLIC "-//W3C//DTD SVG 20010904//EN"
 "http://www.w3.org/TR/2001/REC-SVG-20010904/DTD/svg10.dtd">
<svg version="1.0" xmlns="http://www.w3.org/2000/svg"
 width="512.000000pt" height="512.000000pt" viewBox="0 0 512.000000 512.000000"
 preserveAspectRatio="xMidYMid meet">

<g transform="translate(0.000000,512.000000) scale(0.100000,-0.100000)"
fill="#000000" stroke="none">
<path d="M2405 4388 c-202 -15 -453 -82 -640 -174 -513 -249 -879 -714 -999
-1269 -41 -187 -50 -453 -22 -645 110 -763 683 -1376 1435 -1534 798 -169
1608 205 1993 920 150 278 219 554 219 874 0 86 -6 202 -15 260 -103 716 -615
1303 -1311 1505 -194 56 -433 79 -660 63z m482 -177 c323 -67 634 -234 853
-455 l74 -76 -64 -66 c-163 -166 -382 -307 -600 -387 -151 -55 -139 -55 -158
-5 -145 374 -434 714 -780 918 -49 29 -69 46 -60 50 11 6 72 18 218 44 14 3
113 3 220 1 151 -2 218 -8 297 -24z m-881 -135 c326 -156 608 -433 774 -760
31 -62 61 -126 67 -143 l11 -31 -87 -11 c-124 -16 -325 -14 -450 5 -348 51
-663 204 -914 444 l-101 97 22 29 c37 47 180 170 277 237 103 71 280 166 310
167 11 0 52 -15 91 -34z m2069 -791 c113 -236 165 -462 165 -725 0 -329 -94
-645 -272 -918 l-54 -82 -30 31 c-176 188 -495 390 -736 466 -53 17 -88 33
-88 41 0 8 9 57 20 111 44 216 44 486 0 702 -11 54 -20 103 -20 111 0 8 35 24
88 41 241 76 560 278 736 466 l30 31 54 -82 c30 -46 78 -132 107 -193z m-2805
209 c207 -211 512 -384 820 -467 218 -59 482 -76 708 -47 56 7 104 11 106 9 3
-2 15 -52 27 -109 20 -91 23 -134 23 -320 0 -186 -3 -229 -23 -320 -12 -57
-24 -107 -27 -109 -2 -2 -50 2 -106 9 -226 29 -490 12 -708 -47 -308 -83 -613
-256 -820 -467 -30 -31 -58 -56 -62 -56 -14 0 -108 151 -159 255 -60 123 -120
306 -145 440 -27 141 -27 449 0 590 25 134 85 317 145 440 51 104 145 255 159
255 4 0 32 -25 62 -56z m1501 -1505 l87 -11 -11 -31 c-6 -17 -36 -81 -66 -142
-169 -332 -453 -610 -785 -766 l-80 -37 -100 50 c-175 88 -388 246 -486 362
l-24 29 101 97 c248 237 565 392 908 444 112 17 340 20 456 5z m379 -96 c218
-80 437 -221 600 -387 l64 -66 -74 -76 c-220 -223 -530 -388 -858 -456 -147
-31 -477 -33 -622 -4 -52 10 -101 22 -108 26 -9 4 11 21 60 50 299 176 559
456 711 768 29 59 60 126 69 150 19 50 7 50 158 -5z"/>
</g>
</svg>
